<?xml version="1.0" encoding="UTF-8"?>
<svg width="400px" height="300px" viewBox="0 0 400 300" version="1.1" xmlns="http://www.w3.org/2000/svg" xmlns:xlink="http://www.w3.org/1999/xlink">
    <title>Medical Favorites Illustration</title>
    <defs>
        <linearGradient x1="0%" y1="0%" x2="100%" y2="100%" id="linearGradient-1">
            <stop stop-color="#0D6EFD" offset="0%"></stop>
            <stop stop-color="#36B9CC" offset="100%"></stop>
        </linearGradient>
        <linearGradient x1="0%" y1="0%" x2="100%" y2="100%" id="linearGradient-2">
            <stop stop-color="#FFC107" offset="0%"></stop>
            <stop stop-color="#FF9800" offset="100%"></stop>
        </linearGradient>
    </defs>
    <g id="Medical-Favorites" stroke="none" stroke-width="1" fill="none" fill-rule="evenodd">
        <!-- Decorative circle elements -->
        <circle id="Circle-1" fill="rgba(13, 110, 253, 0.1)" cx="80" cy="60" r="40"></circle>
        <circle id="Circle-2" fill="rgba(54, 185, 204, 0.1)" cx="320" cy="240" r="35"></circle>
        <circle id="Circle-3" fill="rgba(255, 193, 7, 0.1)" cx="250" cy="40" r="25"></circle>
        
        <!-- Main Heart Icon -->
        <g id="Heart-Group" transform="translate(120, 80)">
            <!-- Heart shadow -->
            <path d="M150,130 C130,110 180,60 150,80 C120,60 70,110 90,130 Z" fill="#E0E0E0" transform="translate(10, 10)"></path>
            
            <!-- Main heart -->
            <path d="M150,130 C130,110 180,60 150,80 C120,60 70,110 90,130 Z" fill="url(#linearGradient-1)"></path>
            
            <!-- Hospital Cross -->
            <rect id="Cross-Horizontal" fill="#FFFFFF" x="135" y="100" width="30" height="10" rx="3"></rect>
            <rect id="Cross-Vertical" fill="#FFFFFF" x="145" y="90" width="10" height="30" rx="3"></rect>
        </g>
        
        <!-- Clinic Cards -->
        <g id="Clinic-Card-1" transform="translate(70, 170)">
            <rect fill="#FFFFFF" x="0" y="0" width="80" height="60" rx="8" filter="drop-shadow(0px 2px 4px rgba(0,0,0,0.1))"></rect>
            <rect fill="url(#linearGradient-1)" x="10" y="10" width="60" height="20" rx="4"></rect>
            <rect fill="#F5F5F5" x="10" y="40" width="60" height="5" rx="2"></rect>
            <rect fill="#F5F5F5" x="10" y="50" width="40" height="5" rx="2"></rect>
        </g>
        
        <g id="Clinic-Card-2" transform="translate(230, 170)">
            <rect fill="#FFFFFF" x="0" y="0" width="80" height="60" rx="8" filter="drop-shadow(0px 2px 4px rgba(0,0,0,0.1))"></rect>
            <rect fill="url(#linearGradient-2)" x="10" y="10" width="60" height="20" rx="4"></rect>
            <rect fill="#F5F5F5" x="10" y="40" width="60" height="5" rx="2"></rect>
            <rect fill="#F5F5F5" x="10" y="50" width="40" height="5" rx="2"></rect>
            
            <!-- Favorite Star -->
            <path d="M70,15 L72,20 L78,20 L73,24 L75,30 L70,26 L65,30 L67,24 L62,20 L68,20 Z" fill="#FFFFFF"></path>
        </g>
        
        <!-- Stethoscope -->
        <g id="Stethoscope" transform="translate(30, 130)">
            <path d="M40,30 C50,20 60,30 60,40 C60,50 70,55 80,50 C90,45 100,50 100,60 C100,70 90,75 80,70 C70,65 50,75 40,65 C30,55 30,40 40,30 Z" stroke="url(#linearGradient-1)" stroke-width="3" fill="none"></path>
            <circle fill="url(#linearGradient-1)" cx="40" cy="30" r="10"></circle>
        </g>
    </g>
</svg> 