<svg xmlns="http://www.w3.org/2000/svg" viewBox="0 0 500 500" width="500" height="500">
  <!-- Fondo circular con gradiente -->
  <defs>
    <linearGradient id="bg-gradient" x1="0%" y1="0%" x2="100%" y2="100%">
      <stop offset="0%" stop-color="#e1f5fe" stop-opacity="0.7"/>
      <stop offset="100%" stop-color="#b3e5fc" stop-opacity="0.3"/>
    </linearGradient>
    <linearGradient id="icon-gradient-1" x1="0%" y1="0%" x2="100%" y2="100%">
      <stop offset="0%" stop-color="#0d6efd"/>
      <stop offset="100%" stop-color="#36b9cc"/>
    </linearGradient>
    <linearGradient id="icon-gradient-2" x1="0%" y1="0%" x2="100%" y2="100%">
      <stop offset="0%" stop-color="#ff416c"/>
      <stop offset="100%" stop-color="#ff4b2b"/>
    </linearGradient>
    <linearGradient id="icon-gradient-3" x1="0%" y1="0%" x2="100%" y2="100%">
      <stop offset="0%" stop-color="#11998e"/>
      <stop offset="100%" stop-color="#38ef7d"/>
    </linearGradient>
    <linearGradient id="icon-gradient-4" x1="0%" y1="0%" x2="100%" y2="100%">
      <stop offset="0%" stop-color="#8e2de2"/>
      <stop offset="100%" stop-color="#4a00e0"/>
    </linearGradient>
  </defs>
  
  <circle cx="250" cy="250" r="240" fill="url(#bg-gradient)" opacity="0.8"/>
  
  <!-- Iconos médicos -->
  <!-- Corazón -->
  <g transform="translate(80, 150) scale(1.5)">
    <path d="M50,90 C50,90 80,60 100,40 C120,20 150,20 150,60 C150,100 100,140 50,190 C0,140 -50,100 -50,60 C-50,20 -20,20 0,40 C20,60 50,90 50,90 Z" fill="url(#icon-gradient-2)" opacity="0.7" transform="scale(0.3)"/>
  </g>
  
  <!-- Pulmones -->
  <g transform="translate(380, 180) scale(1.2)">
    <path d="M0,0 C-30,-10 -40,30 -30,60 C-20,90 -40,100 -30,120 C-20,140 0,130 10,120 C20,110 15,100 10,90 C5,80 0,70 0,60 C0,50 5,40 10,30 C15,20 30,15 20,5 C10,-5 0,0 0,0 Z" fill="url(#icon-gradient-1)" opacity="0.6"/>
    <path d="M0,0 C30,-10 40,30 30,60 C20,90 40,100 30,120 C20,140 0,130 -10,120 C-20,110 -15,100 -10,90 C-5,80 0,70 0,60 C0,50 -5,40 -10,30 C-15,20 -30,15 -20,5 C-10,-5 0,0 0,0 Z" fill="url(#icon-gradient-1)" opacity="0.6"/>
  </g>
  
  <!-- Cerebro -->
  <g transform="translate(250, 100) scale(0.6)">
    <path d="M0,100 C-30,100 -50,90 -80,90 C-110,90 -120,110 -110,130 C-100,150 -80,140 -60,150 C-40,160 -40,180 -20,180 C0,180 -5,160 10,160 C25,160 20,180 40,180 C60,180 60,160 80,150 C100,140 120,150 130,130 C140,110 130,90 100,90 C70,90 50,100 20,100 C-10,100 0,100 0,100 Z" fill="url(#icon-gradient-4)" opacity="0.6"/>
    <path d="M0,90 C-20,90 -30,70 -30,60 C-30,50 -20,40 0,40 C20,40 30,50 30,60 C30,70 20,90 0,90 Z" fill="url(#icon-gradient-4)" opacity="0.6"/>
  </g>
  
  <!-- Cruz médica -->
  <g transform="translate(110, 380) scale(0.8)">
    <rect x="-15" y="-50" width="30" height="100" rx="5" fill="url(#icon-gradient-1)" opacity="0.7"/>
    <rect x="-50" y="-15" width="100" height="30" rx="5" fill="url(#icon-gradient-1)" opacity="0.7"/>
  </g>
  
  <!-- Píldora -->
  <g transform="translate(380, 350) rotate(45) scale(0.7)">
    <rect x="-50" y="-15" width="100" height="30" rx="15" fill="url(#icon-gradient-3)" opacity="0.7"/>
    <rect x="-50" y="-15" width="50" height="30" rx="15" fill="white" opacity="0.3"/>
  </g>
  
  <!-- Gotero -->
  <g transform="translate(200, 380) scale(0.6)">
    <path d="M-10,-40 L10,-40 L10,10 C10,10 30,40 30,60 C30,80 20,90 0,90 C-20,90 -30,80 -30,60 C-30,40 -10,10 -10,10 Z" fill="url(#icon-gradient-1)" opacity="0.5"/>
    <rect x="-15" y="-50" width="30" height="15" rx="3" fill="url(#icon-gradient-1)" opacity="0.5"/>
  </g>
  
  <!-- Latido de corazón -->
  <g transform="translate(250, 250) scale(0.7)">
    <path d="M-100,0 L-50,-30 L-25,0 L0,-50 L25,0 L50,-30 L100,0" fill="none" stroke="url(#icon-gradient-2)" stroke-width="8" opacity="0.6" stroke-linecap="round"/>
  </g>
  
  <!-- Círculos decorativos -->
  <circle cx="100" cy="100" r="15" fill="url(#icon-gradient-1)" opacity="0.4"/>
  <circle cx="400" cy="120" r="10" fill="url(#icon-gradient-2)" opacity="0.4"/>
  <circle cx="150" cy="420" r="12" fill="url(#icon-gradient-3)" opacity="0.4"/>
  <circle cx="350" cy="400" r="8" fill="url(#icon-gradient-4)" opacity="0.4"/>
  <circle cx="450" cy="250" r="10" fill="url(#icon-gradient-1)" opacity="0.4"/>
  <circle cx="50" cy="300" r="12" fill="url(#icon-gradient-2)" opacity="0.4"/>
  <circle cx="250" cy="450" r="15" fill="url(#icon-gradient-3)" opacity="0.4"/>
</svg> 